<svg width="22" height="30" viewBox="0 0 22 30" fill="none" xmlns="http://www.w3.org/2000/svg">
<path fill-rule="evenodd" clip-rule="evenodd" d="M3.24239 12.7777C1.93871 12.7777 1.66663 13.0336 1.66663 14.2592V16.4815C1.66663 17.7072 1.93871 17.9629 3.24239 17.9629H6.39389V26.8519C6.39389 28.0775 6.66597 28.3333 7.96965 28.3333H11.1212C12.4249 28.3333 12.6969 28.0775 12.6969 26.8519V17.9629H16.2356C17.2244 17.9629 17.4792 17.7823 17.7508 16.8885L18.4261 14.6663C18.8913 13.1352 18.6046 12.7777 16.9109 12.7777H12.6969V9.07408C12.6969 8.25588 13.4024 7.59259 14.2726 7.59259H18.7576C20.0612 7.59259 20.3333 7.33679 20.3333 6.11111V3.14815C20.3333 1.92247 20.0612 1.66667 18.7576 1.66667H14.2726C9.92129 1.66667 6.39389 4.98309 6.39389 9.07408V12.7777H3.24239Z" fill="#1877F2" stroke="#141B34" stroke-width="1.5" stroke-linejoin="round"/>
</svg>
